# xmcd
# 
# Track frame offsets:
#     150
#     11249
#     24366
#     40252
#     53711
#     66375
#     77006
#     93889
#     106430
#     118234
#     132486
#     142947
#     157177
#     173678
#     187197
#     198110
#     210346
#     220677
#     232015
#     249744
#     264931
#     276469
#     289400
#     302520
#     314690
#     328246
#     340722
# 
# Disc length: 4672
# 
# Revision: 1
# Processed by: cddbd v1.5.2PL0 Copyright (c) Steve Scherf et al.
# Submitted via: fre:ac v1.0.31
# 
DISCID=99123e1b
DTITLE=Eddy Arnold - Each Road I Take The 1970 Lee Hazelwood and Chet Atkins Sessions
DYEAR=0
DGENRE=Country
TTITLE0=Soul Deep
TTITLE1=A Man's Kind of Woman
TTITLE2=With Pen in Hand
TTITLE3=When the Wind Blows (In Chicago)
TTITLE4=Just Enough to Start Me Dreamin'
TTITLE5=I Just Can't Help Believin'
TTITLE6=Leaving on a Jet Plane
TTITLE7=(Today) I Started Loving You Again
TTITLE8=Shadows of Her Mind
TTITLE9=Mary in the Morning
TTITLE10=I'll Give You Three Guesses (from the Paramount Production "Darling Lili")
TTITLE11=Living Under Pressure
TTITLE12=A Man's Kind of Woman #2
TTITLE13=July, You're a Woman
TTITLE14=Each Road I Take (Leads Back to You)
TTITLE15=She Believes in Me
TTITLE16=New World in the Morning
TTITLE17=Where Love Has Died
TTITLE18=Seven Bridges Road
TTITLE19=Some Lonely Picker
TTITLE20=All That Keeps Ya' Going
TTITLE21=Closest I Ever Came
TTITLE22=My Way of Life
TTITLE23=Gentle Is My Love [Previously Unreleased Outtake]
TTITLE24=How Do I Love Thee [Previously Unreleased Outtake]
TTITLE25=From Heaven to Heartache
TTITLE26=Ten Times Forever More
EXTD=
EXTT0=
EXTT1=
EXTT2=
EXTT3=
EXTT4=
EXTT5=
EXTT6=
EXTT7=
EXTT8=
EXTT9=
EXTT10=
EXTT11=
EXTT12=
EXTT13=
EXTT14=
EXTT15=
EXTT16=
EXTT17=
EXTT18=
EXTT19=
EXTT20=
EXTT21=
EXTT22=
EXTT23=
EXTT24=
EXTT25=
EXTT26=
PLAYORDER=
